<svg width="14" height="14" viewBox="0 0 14 14" fill="none" xmlns="http://www.w3.org/2000/svg">
<path d="M6.66667 0C2.98667 0 0 2.98667 0 6.66667C0 10.3467 2.98667 13.3333 6.66667 13.3333C10.3467 13.3333 13.3333 10.3467 13.3333 6.66667C13.3333 2.98667 10.3467 0 6.66667 0ZM4.86 9.52667L2.46667 7.13333C2.40495 7.07161 2.35599 6.99834 2.32258 6.9177C2.28918 6.83705 2.27199 6.75062 2.27199 6.66333C2.27199 6.57605 2.28918 6.48961 2.32258 6.40897C2.35599 6.32833 2.40495 6.25505 2.46667 6.19333C2.52839 6.13161 2.60166 6.08265 2.6823 6.04925C2.76295 6.01585 2.84938 5.99865 2.93667 5.99865C3.02395 5.99865 3.11039 6.01585 3.19103 6.04925C3.27167 6.08265 3.34495 6.13161 3.40667 6.19333L5.33333 8.11333L9.92 3.52667C10.0447 3.40201 10.2137 3.33199 10.39 3.33199C10.5663 3.33199 10.7353 3.40201 10.86 3.52667C10.9847 3.65132 11.0547 3.82038 11.0547 3.99667C11.0547 4.17295 10.9847 4.34201 10.86 4.46667L5.8 9.52667C5.73832 9.58847 5.66506 9.6375 5.58442 9.67095C5.50377 9.70441 5.41731 9.72163 5.33 9.72163C5.24269 9.72163 5.15623 9.70441 5.07558 9.67095C4.99493 9.6375 4.92168 9.58847 4.86 9.52667Z" fill="white"/>
</svg>
