<svg width="20" height="20" viewBox="0 0 20 20" fill="none" xmlns="http://www.w3.org/2000/svg">
<path d="M9.99935 9.31675C12.7493 6.81675 14.166 5.53342 14.166 3.90841C14.166 2.65841 13.1243 1.66675 11.8743 1.66675C11.1577 1.66675 10.4743 1.96675 9.99935 2.50008C9.52435 1.96675 8.84102 1.66675 8.07435 1.66675C6.82435 1.66675 5.83268 2.70841 5.83268 3.95841C5.83268 5.53341 7.24935 6.81675 9.99935 9.31675ZM9.31602 10.0001C6.81602 7.25008 5.53268 5.83342 3.90768 5.83342C2.65768 5.83342 1.66602 6.87508 1.66602 8.12508C1.66602 8.84175 1.96602 9.52508 2.49935 10.0001C1.96602 10.4751 1.66602 11.1584 1.66602 11.9251C1.66602 13.1751 2.70768 14.1667 3.95768 14.1667C5.53268 14.1667 6.81602 12.7501 9.31602 10.0001ZM10.691 10.0001C13.1827 12.7501 14.466 14.1667 16.091 14.1667C17.341 14.1667 18.3327 13.1251 18.3327 11.8751C18.3327 11.1584 18.0327 10.4751 17.4993 10.0001C18.0327 9.52508 18.3327 8.84175 18.3327 8.07508C18.3327 6.82508 17.291 5.83342 16.041 5.83342C14.466 5.83342 13.1827 7.25008 10.691 10.0001ZM9.99935 10.6834C7.24935 13.1834 5.83268 14.4667 5.83268 16.0917C5.83268 17.3417 6.87435 18.3334 8.12435 18.3334C8.84102 18.3334 9.52435 18.0334 9.99935 17.5001C10.4743 18.0334 11.1577 18.3334 11.9243 18.3334C13.1743 18.3334 14.166 17.2917 14.166 16.0417C14.166 14.4667 12.7493 13.1834 9.99935 10.6834Z" fill="white"/>
</svg>
