<svg width="21" height="21" viewBox="0 0 21 21" fill="none" xmlns="http://www.w3.org/2000/svg">
<g clip-path="url(#clip0_41959_46044)">
<path d="M20.2579 19.0891L15.3255 14.1571C16.6696 12.5133 17.3305 10.4158 17.1714 8.29845C17.0123 6.18111 16.0454 4.20591 14.4707 2.78141C12.8961 1.35691 10.8341 0.592094 8.71126 0.645166C6.58845 0.698239 4.56726 1.56514 3.06574 3.06655C1.56423 4.56795 0.697267 6.589 0.64419 8.71165C0.591113 10.8343 1.35598 12.8962 2.78058 14.4707C4.20518 16.0453 6.18053 17.0121 8.29802 17.1712C10.4155 17.3303 12.5132 16.6695 14.1571 15.3254L19.0894 20.2574C19.2453 20.408 19.454 20.4912 19.6707 20.4894C19.8873 20.4875 20.0946 20.4006 20.2478 20.2474C20.401 20.0942 20.4879 19.8869 20.4898 19.6703C20.4917 19.4536 20.4084 19.2449 20.2579 19.0891ZM8.93136 15.5419C7.62389 15.5419 6.34579 15.1542 5.25868 14.4279C4.17156 13.7016 3.32426 12.6692 2.82392 11.4613C2.32357 10.2535 2.19266 8.92441 2.44773 7.64216C2.70281 6.35991 3.33241 5.18209 4.25692 4.25764C5.18144 3.33319 6.35934 2.70364 7.64168 2.44858C8.92402 2.19353 10.2532 2.32443 11.4611 2.82474C12.6691 3.32505 13.7015 4.17229 14.4279 5.25932C15.1543 6.34636 15.542 7.62437 15.542 8.93174C15.54 10.6843 14.8429 12.3644 13.6036 13.6037C12.3643 14.8429 10.684 15.5399 8.93136 15.5419Z" fill="#74787A"/>
</g>
<defs>
<clipPath id="clip0_41959_46044">
<rect width="20" height="20" fill="white" transform="translate(0.5 0.5)"/>
</clipPath>
</defs>
</svg>
