<svg width="20" height="20" viewBox="0 0 20 20" fill="none" xmlns="http://www.w3.org/2000/svg">
<path fill-rule="evenodd" clip-rule="evenodd" d="M17.1431 3.42864H3.42885C2.95546 3.42864 2.57171 3.8124 2.57171 4.28578V16.2858C2.57171 16.7592 2.95546 17.1429 3.42885 17.1429H17.1431C17.6165 17.1429 18.0003 16.7592 18.0003 16.2858V4.28578C18.0003 3.8124 17.6165 3.42864 17.1431 3.42864ZM3.42885 1.71436C2.00869 1.71436 0.857422 2.86562 0.857422 4.28578V16.2858C0.857422 17.7059 2.00869 18.8572 3.42885 18.8572H17.1431C18.5633 18.8572 19.7146 17.7059 19.7146 16.2858V4.28578C19.7146 2.86562 18.5633 1.71436 17.1431 1.71436H3.42885ZM5.14314 6.00007H6.85742V7.71436H5.14314V6.00007ZM9.42885 6.00007C8.95546 6.00007 8.57171 6.38383 8.57171 6.85721C8.57171 7.3306 8.95546 7.71436 9.42885 7.71436H14.5717C15.0451 7.71436 15.4289 7.3306 15.4289 6.85721C15.4289 6.38383 15.0451 6.00007 14.5717 6.00007H9.42885ZM6.85742 9.42864H5.14314V11.1429H6.85742V9.42864ZM8.57171 10.2858C8.57171 9.8124 8.95546 9.42864 9.42885 9.42864H14.5717C15.0451 9.42864 15.4289 9.8124 15.4289 10.2858C15.4289 10.7592 15.0451 11.1429 14.5717 11.1429H9.42885C8.95546 11.1429 8.57171 10.7592 8.57171 10.2858ZM6.85742 12.8572H5.14314V14.5715H6.85742V12.8572ZM8.57171 13.7144C8.57171 13.241 8.95546 12.8572 9.42885 12.8572H14.5717C15.0451 12.8572 15.4289 13.241 15.4289 13.7144C15.4289 14.1877 15.0451 14.5715 14.5717 14.5715H9.42885C8.95546 14.5715 8.57171 14.1877 8.57171 13.7144Z" fill="white"/>
</svg>
